<svg width="256" height="256" viewBox="0 0 256 256" fill="none" xmlns="http://www.w3.org/2000/svg">
<g clip-path="url(#clip0_14_16705)">
<rect width="256" height="256" rx="64" fill="url(#paint0_linear_14_16705)"/>
<rect x="-22" y="-15" width="297" height="287" fill="url(#paint1_linear_14_16705)"/>
<path d="M-19 77C-19 43.3969 -19 26.5953 -12.4604 13.7606C-6.70799 2.47084 2.47084 -6.70799 13.7606 -12.4604C26.5953 -19 43.3968 -19 77 -19H179C212.603 -19 229.405 -19 242.239 -12.4604C253.529 -6.70799 262.708 2.47084 268.46 13.7606C275 26.5953 275 43.3968 275 77V179C275 212.603 275 229.405 268.46 242.239C262.708 253.529 253.529 262.708 242.239 268.46C229.405 275 212.603 275 179 275H77C43.3969 275 26.5953 275 13.7606 268.46C2.47084 262.708 -6.70799 253.529 -12.4604 242.239C-19 229.405 -19 212.603 -19 179V77Z" fill="url(#paint2_linear_14_16705)"/>
<path d="M-19 77C-19 43.3969 -19 26.5953 -12.4604 13.7606C-6.70799 2.47084 2.47084 -6.70799 13.7606 -12.4604C26.5953 -19 43.3968 -19 77 -19H179C212.603 -19 229.405 -19 242.239 -12.4604C253.529 -6.70799 262.708 2.47084 268.46 13.7606C275 26.5953 275 43.3968 275 77V179C275 212.603 275 229.405 268.46 242.239C262.708 253.529 253.529 262.708 242.239 268.46C229.405 275 212.603 275 179 275H77C43.3969 275 26.5953 275 13.7606 268.46C2.47084 262.708 -6.70799 253.529 -12.4604 242.239C-19 229.405 -19 212.603 -19 179V77Z" fill="url(#paint3_linear_14_16705)"/>
<path d="M51.0836 210.423H43V181.577H51.0836V210.423Z" fill="url(#paint4_linear_14_16705)"/>
<path d="M76.1047 196.948V181.577H84.025V210.423H77.3703L64.755 195.052V210.423H56.8347V181.577H63.4894L76.1047 196.948Z" fill="url(#paint5_linear_14_16705)"/>
<path d="M103.975 211C100.981 211 98.2869 210.368 95.8918 209.104C93.5238 207.813 91.6594 206.027 90.2986 203.747C88.9377 201.467 88.2572 198.885 88.2572 196C88.2572 193.115 88.9377 190.533 90.2986 188.253C91.6594 185.973 93.5238 184.201 95.8918 182.937C98.2869 181.646 100.981 181 103.975 181C106.588 181 108.943 181.467 111.038 182.401C113.134 183.335 114.876 184.681 116.264 186.44L111.12 191.137C109.269 188.885 107.024 187.758 104.384 187.758C102.832 187.758 101.444 188.102 100.219 188.788C99.0218 189.475 98.0828 190.451 97.4023 191.714C96.7491 192.951 96.4225 194.379 96.4225 196C96.4225 197.621 96.7491 199.063 97.4023 200.327C98.0828 201.563 99.0218 202.525 100.219 203.212C101.444 203.898 102.832 204.242 104.384 204.242C107.024 204.242 109.269 203.115 111.12 200.863L116.264 205.56C114.876 207.319 113.134 208.665 111.038 209.599C108.943 210.533 106.588 211 103.975 211Z" fill="url(#paint6_linear_14_16705)"/>
<path d="M138.161 181.577H146L135.059 200.08V210.423H126.975V199.956L116.074 181.577H124.607L131.384 193.033L138.161 181.577Z" fill="url(#paint7_linear_14_16705)"/>
</g>
<defs>
<linearGradient id="paint0_linear_14_16705" x1="128" y1="0" x2="128" y2="256" gradientUnits="userSpaceOnUse">
<stop stop-color="#EF786F"/>
<stop offset="1" stop-color="#D8595E"/>
</linearGradient>
<linearGradient id="paint1_linear_14_16705" x1="22.8855" y1="-181.372" x2="353.416" y2="-70.8018" gradientUnits="userSpaceOnUse">
<stop stop-color="#05C867"/>
<stop offset="1" stop-color="#B7D949"/>
</linearGradient>
<linearGradient id="paint2_linear_14_16705" x1="128" y1="-19" x2="128" y2="275" gradientUnits="userSpaceOnUse">
<stop offset="0.0377117" stop-color="#00FF6F"/>
<stop offset="1" stop-color="#00B900"/>
</linearGradient>
<linearGradient id="paint3_linear_14_16705" x1="128" y1="-19" x2="128" y2="275" gradientUnits="userSpaceOnUse">
<stop stop-color="#322E53"/>
<stop offset="1" stop-color="#0B0F0C"/>
</linearGradient>
<linearGradient id="paint4_linear_14_16705" x1="58.5663" y1="163.609" x2="115.676" y2="226.993" gradientUnits="userSpaceOnUse">
<stop stop-color="#7A9CF3"/>
<stop offset="1" stop-color="#9582D4"/>
</linearGradient>
<linearGradient id="paint5_linear_14_16705" x1="58.5663" y1="163.609" x2="115.676" y2="226.993" gradientUnits="userSpaceOnUse">
<stop stop-color="#7A9CF3"/>
<stop offset="1" stop-color="#9582D4"/>
</linearGradient>
<linearGradient id="paint6_linear_14_16705" x1="58.5663" y1="163.609" x2="115.676" y2="226.993" gradientUnits="userSpaceOnUse">
<stop stop-color="#7A9CF3"/>
<stop offset="1" stop-color="#9582D4"/>
</linearGradient>
<linearGradient id="paint7_linear_14_16705" x1="58.5663" y1="163.609" x2="115.676" y2="226.993" gradientUnits="userSpaceOnUse">
<stop stop-color="#7A9CF3"/>
<stop offset="1" stop-color="#9582D4"/>
</linearGradient>
<clipPath id="clip0_14_16705">
<rect width="256" height="256" rx="64" fill="white"/>
</clipPath>
</defs>
</svg>
