<svg width="246" height="246" viewBox="0 0 246 246" fill="none" xmlns="http://www.w3.org/2000/svg">
<path d="M186 242V246H60V242H186ZM242 186V60C242 29.0721 216.928 4 186 4H60C29.0721 4 4 29.0721 4 60V186C4 216.928 29.0721 242 60 242V246C27.1218 246 0.420037 219.555 0.00488281 186.775L0 186V60C7.73213e-07 26.8629 26.8629 7.73113e-07 60 0H186L186.775 0.00488281C219.555 0.420037 246 27.1218 246 60V186L245.995 186.775C245.583 219.297 219.297 245.583 186.775 245.995L186 246V242C216.928 242 242 216.928 242 186Z" fill="black"/>
<path d="M51.0836 210.423H43V181.577H51.0836V210.423Z" fill="black"/>
<path d="M76.1047 196.948V181.577H84.025V210.423H77.3703L64.755 195.052V210.423H56.8347V181.577H63.4894L76.1047 196.948Z" fill="black"/>
<path d="M103.975 211C100.981 211 98.2869 210.368 95.8918 209.104C93.5238 207.813 91.6594 206.027 90.2986 203.747C88.9377 201.467 88.2572 198.885 88.2572 196C88.2572 193.115 88.9377 190.533 90.2986 188.253C91.6594 185.973 93.5238 184.201 95.8918 182.937C98.2869 181.646 100.981 181 103.975 181C106.588 181 108.943 181.467 111.038 182.401C113.134 183.335 114.876 184.681 116.264 186.44L111.12 191.137C109.269 188.885 107.024 187.758 104.384 187.758C102.832 187.758 101.444 188.102 100.219 188.788C99.0218 189.475 98.0828 190.451 97.4023 191.714C96.7491 192.951 96.4225 194.379 96.4225 196C96.4225 197.621 96.7491 199.063 97.4023 200.327C98.0828 201.563 99.0218 202.525 100.219 203.212C101.444 203.898 102.832 204.242 104.384 204.242C107.024 204.242 109.269 203.115 111.12 200.863L116.264 205.56C114.876 207.319 113.134 208.665 111.038 209.599C108.943 210.533 106.588 211 103.975 211Z" fill="black"/>
<path d="M138.161 181.577H146L135.059 200.08V210.423H126.975V199.956L116.074 181.577H124.607L131.384 193.033L138.161 181.577Z" fill="black"/>
<path d="M51.0836 181.577H43V210.423H51.0836V181.577ZM84.025 181.577H76.1047V196.948L63.4894 181.577H56.8347V210.423H64.755V195.052L77.3703 210.423H84.025V181.577ZM124.797 181.243L124.894 181.407L131.384 192.378L137.874 181.407L137.972 181.243H146.584L146.287 181.747L135.392 200.171V210.757H126.642V200.047L115.489 181.243H124.797ZM96.4225 196C96.4225 194.379 96.7491 192.951 97.4023 191.714C98.0828 190.451 99.0218 189.475 100.219 188.788C101.444 188.102 102.832 187.758 104.384 187.758L104.874 187.771C107.303 187.903 109.385 189.025 111.12 191.137L116.264 186.44C114.963 184.791 113.35 183.505 111.427 182.581L111.038 182.401C109.073 181.525 106.881 181.061 104.462 181.006L103.975 181C100.981 181 98.2869 181.646 95.8918 182.937C93.5238 184.201 91.6594 185.973 90.2986 188.253L90.0518 188.684C88.8555 190.857 88.2572 193.296 88.2572 196L88.2656 196.537C88.3453 199.206 89.0227 201.609 90.2986 203.747C91.6594 206.027 93.5238 207.813 95.8918 209.104C98.1373 210.289 100.646 210.918 103.418 210.992L103.975 211C106.588 211 108.943 210.533 111.038 209.599C113.003 208.723 114.657 207.486 116 205.886L116.264 205.56L111.12 200.863C109.269 203.115 107.024 204.242 104.384 204.242L104.384 203.908C106.913 203.908 109.067 202.836 110.862 200.651L111.085 200.38L111.345 200.616L116.718 205.523L116.525 205.767C115.103 207.568 113.318 208.948 111.174 209.903C109.03 210.859 106.629 211.333 103.976 211.333C100.933 211.333 98.1843 210.691 95.7363 209.399L95.7324 209.397C93.313 208.078 91.4046 206.25 90.0127 203.918C88.6184 201.582 87.9238 198.939 87.9238 196C87.9238 193.061 88.6184 190.418 90.0127 188.082C91.4049 185.749 93.3137 183.935 95.7344 182.643C98.1826 181.323 100.932 180.667 103.976 180.667C106.629 180.667 109.03 181.141 111.174 182.097C113.318 183.052 115.103 184.432 116.525 186.233L116.718 186.477L111.345 191.384L111.085 191.62L110.862 191.349C109.067 189.164 106.913 188.092 104.384 188.092C102.884 188.092 101.553 188.423 100.383 189.079L100.382 189.078C99.2418 189.733 98.3479 190.662 97.6963 191.872C97.0729 193.053 96.7559 194.426 96.7559 196C96.7559 197.572 97.0715 198.958 97.6943 200.166C98.3454 201.349 99.24 202.265 100.382 202.921C101.552 203.577 102.884 203.908 104.384 203.908L104.384 204.242L104.095 204.237C102.755 204.2 101.541 203.899 100.451 203.336L100.219 203.212C99.0218 202.525 98.0828 201.563 97.4023 200.327C96.7899 199.142 96.465 197.8 96.4268 196.302L96.4225 196ZM135.059 210.423V200.08L146 181.577H138.161L131.384 193.033L124.607 181.577H116.074L126.975 199.956V210.423H135.059ZM51.417 210.757H42.667V181.243H51.417V210.757ZM84.3584 210.757H77.2129L77.1123 210.635L65.0879 195.983V210.757H56.501V181.243H63.6475L63.7471 181.365L75.7715 196.016V181.243H84.3584V210.757Z" fill="black"/>
</svg>
