<svg width="246" height="246" viewBox="0 0 246 246" fill="none" xmlns="http://www.w3.org/2000/svg">
<path d="M186 242V246H60V242H186ZM242 186V60C242 29.0721 216.928 4 186 4H60C29.0721 4 4 29.0721 4 60V186C4 216.928 29.0721 242 60 242V246C27.1218 246 0.420037 219.555 0.00488281 186.775L0 186V60C7.73213e-07 26.8629 26.8629 7.73113e-07 60 0H186L186.775 0.00488281C219.555 0.420037 246 27.1218 246 60V186L245.995 186.775C245.583 219.297 219.297 245.583 186.775 245.995L186 246V242C216.928 242 242 216.928 242 186Z" fill="black"/>
<path d="M79.98 174H52V72H79.98V174Z" fill="black"/>
<path d="M166.585 126.351V72H194V174H170.966L127.301 119.649V174H99.8863V72H122.92L166.585 126.351Z" fill="black"/>
</svg>
