<svg width="256" height="256" viewBox="0 0 256 256" fill="none" xmlns="http://www.w3.org/2000/svg">
<g clip-path="url(#clip0_18_16786)">
<rect width="256" height="256" rx="64" fill="url(#paint0_linear_18_16786)"/>
<rect x="-22" y="-15" width="297" height="287" fill="url(#paint1_linear_18_16786)"/>
<rect width="246" height="246" transform="translate(5 5)" fill="url(#paint2_linear_18_16786)"/>
<path d="M45.3039 154.904H30V100.096H45.3039V154.904Z" fill="white"/>
<path d="M92.674 129.301V100.096H107.669V154.904H95.07L71.1867 125.699V154.904H56.1919V100.096H68.7906L92.674 129.301Z" fill="white"/>
<path d="M145.439 156C139.771 156 134.669 154.799 130.135 152.398C125.652 149.945 122.122 146.552 119.546 142.22C116.969 137.887 115.681 132.981 115.681 127.5C115.681 122.019 116.969 117.113 119.546 112.78C122.122 108.448 125.652 105.081 130.135 102.68C134.669 100.227 139.771 99 145.439 99C150.386 99 154.843 99.8874 158.81 101.662C162.778 103.437 166.076 105.995 168.704 109.335L158.965 118.261C155.461 113.981 151.21 111.841 146.212 111.841C143.275 111.841 140.647 112.493 138.328 113.798C136.061 115.103 134.283 116.956 132.995 119.357C131.758 121.706 131.14 124.42 131.14 127.5C131.14 130.58 131.758 133.32 132.995 135.721C134.283 138.07 136.061 139.897 138.328 141.202C140.647 142.507 143.275 143.159 146.212 143.159C151.21 143.159 155.461 141.019 158.965 136.739L168.704 145.665C166.076 149.005 162.778 151.563 158.81 153.338C154.843 155.113 150.386 156 145.439 156Z" fill="white"/>
<path d="M210.16 100.096H225L204.286 135.251V154.904H188.982V135.016L168.345 100.096H184.499L197.329 121.863L210.16 100.096Z" fill="white"/>
</g>
<defs>
<linearGradient id="paint0_linear_18_16786" x1="128" y1="0" x2="128" y2="256" gradientUnits="userSpaceOnUse">
<stop stop-color="#EF786F"/>
<stop offset="1" stop-color="#D8595E"/>
</linearGradient>
<linearGradient id="paint1_linear_18_16786" x1="22.8855" y1="-181.372" x2="353.416" y2="-70.8018" gradientUnits="userSpaceOnUse">
<stop stop-color="#007AFF"/>
<stop offset="1" stop-color="#5856D7"/>
</linearGradient>
<linearGradient id="paint2_linear_18_16786" x1="37.1779" y1="-142.605" x2="312.787" y2="-53.5112" gradientUnits="userSpaceOnUse">
<stop stop-color="#007AFF"/>
<stop offset="1" stop-color="#5856D7"/>
</linearGradient>
<clipPath id="clip0_18_16786">
<rect width="256" height="256" rx="64" fill="white"/>
</clipPath>
</defs>
</svg>
