<svg width="246" height="246" viewBox="0 0 246 246" fill="none" xmlns="http://www.w3.org/2000/svg">
<path d="M246 0V246H0V0H246ZM4 242H242V4H4V242Z" fill="black"/>
<path d="M88.2648 115.189H65.7258V34.9519H88.2648V115.189Z" fill="black"/>
<path d="M158.029 77.7068V34.9519H180.113V115.189H161.558L126.384 72.4341V115.189H104.3V34.9519H122.855L158.029 77.7068Z" fill="black"/>
<path d="M85.9852 211.952C77.6374 211.952 70.1244 210.194 63.4462 206.679C56.8439 203.088 51.6455 198.121 47.8511 191.778C44.0566 185.435 42.1594 178.252 42.1594 170.229C42.1594 162.205 44.0566 155.022 47.8511 148.679C51.6455 142.337 56.8439 137.408 63.4462 133.893C70.1244 130.301 77.6374 128.505 85.9852 128.505C93.2705 128.505 99.8348 129.804 105.678 132.403C111.522 135.001 116.379 138.745 120.249 143.636L105.906 156.703C100.746 150.437 94.4847 147.304 87.1235 147.304C82.7978 147.304 78.9275 148.259 75.5125 150.169C72.1734 152.08 69.5552 154.793 67.658 158.308C65.8367 161.746 64.926 165.72 64.926 170.229C64.926 174.737 65.8367 178.749 67.658 182.264C69.5552 185.703 72.1734 188.378 75.5125 190.288C78.9275 192.198 82.7978 193.154 87.1235 193.154C94.4847 193.154 100.746 190.02 105.906 183.754L120.249 196.822C116.379 201.712 111.522 205.457 105.678 208.055C99.8348 210.653 93.2705 211.952 85.9852 211.952Z" fill="black"/>
<path d="M181.303 130.11H203.159L172.652 181.576V210.347H150.113V181.233L119.72 130.11H143.511L162.407 161.976L181.303 130.11Z" fill="black"/>
</svg>
