<svg width="246" height="246" viewBox="0 0 246 246" fill="none" xmlns="http://www.w3.org/2000/svg">
<path fill-rule="evenodd" clip-rule="evenodd" d="M0 60C0 26.8629 26.8629 0 60 0H186C219.137 0 246 26.8629 246 60V186C246 219.137 219.137 246 186 246H60C26.8629 246 0 219.137 0 186V60ZM88.2648 115.189H65.7258V34.9519H88.2648V115.189ZM158.029 34.9519V77.7068L122.855 34.9519H104.3V115.189H126.384V72.4341L161.558 115.189H180.113V34.9519H158.029ZM181.303 130.11H203.159L172.652 181.576V210.347H150.113V181.233L119.72 130.11H143.511L162.407 161.976L181.303 130.11ZM63.4462 206.679C70.1244 210.194 77.6374 211.952 85.9852 211.952C93.2705 211.952 99.8348 210.653 105.678 208.055C111.522 205.457 116.379 201.712 120.249 196.822L105.906 183.754C100.746 190.02 94.4847 193.154 87.1235 193.154C82.7978 193.154 78.9275 192.198 75.5125 190.288C72.1734 188.378 69.5552 185.703 67.658 182.264C65.8367 178.749 64.926 174.737 64.926 170.229C64.926 165.72 65.8367 161.746 67.658 158.308C69.5552 154.793 72.1734 152.08 75.5125 150.169C78.9275 148.259 82.7978 147.304 87.1235 147.304C94.4847 147.304 100.746 150.437 105.906 156.703L120.249 143.636C116.379 138.745 111.522 135.001 105.678 132.403C99.8348 129.804 93.2705 128.505 85.9852 128.505C77.6374 128.505 70.1244 130.301 63.4462 133.893C56.8439 137.408 51.6455 142.337 47.8511 148.679C44.0566 155.022 42.1594 162.205 42.1594 170.229C42.1594 178.252 44.0566 185.435 47.8511 191.778C51.6455 198.121 56.8439 203.088 63.4462 206.679Z" fill="white"/>
</svg>
