<svg width="246" height="246" viewBox="0 0 246 246" fill="none" xmlns="http://www.w3.org/2000/svg">
<path d="M186 242V246H60V242H186ZM242 186V60C242 29.0721 216.928 4 186 4H60C29.0721 4 4 29.0721 4 60V186C4 216.928 29.0721 242 60 242V246C27.1218 246 0.420037 219.555 0.00488281 186.775L0 186V60C7.73213e-07 26.8629 26.8629 7.73113e-07 60 0H186L186.775 0.00488281C219.555 0.420037 246 27.1218 246 60V186L245.995 186.775C245.583 219.297 219.297 245.583 186.775 245.995L186 246V242C216.928 242 242 216.928 242 186Z" fill="white"/>
<path d="M51.0836 210.423H43V181.577H51.0836V210.423Z" fill="white"/>
<path d="M76.1047 196.948V181.577H84.025V210.423H77.3703L64.755 195.052V210.423H56.8347V181.577H63.4894L76.1047 196.948Z" fill="white"/>
<path d="M103.975 211C100.981 211 98.2869 210.368 95.8918 209.104C93.5238 207.813 91.6594 206.027 90.2986 203.747C88.9377 201.467 88.2572 198.885 88.2572 196C88.2572 193.115 88.9377 190.533 90.2986 188.253C91.6594 185.973 93.5238 184.201 95.8918 182.937C98.2869 181.646 100.981 181 103.975 181C106.588 181 108.943 181.467 111.038 182.401C113.134 183.335 114.876 184.681 116.264 186.44L111.12 191.137C109.269 188.885 107.024 187.758 104.384 187.758C102.832 187.758 101.444 188.102 100.219 188.788C99.0218 189.475 98.0828 190.451 97.4023 191.714C96.7491 192.951 96.4225 194.379 96.4225 196C96.4225 197.621 96.7491 199.063 97.4023 200.327C98.0828 201.563 99.0218 202.525 100.219 203.212C101.444 203.898 102.832 204.242 104.384 204.242C107.024 204.242 109.269 203.115 111.12 200.863L116.264 205.56C114.876 207.319 113.134 208.665 111.038 209.599C108.943 210.533 106.588 211 103.975 211Z" fill="white"/>
<path d="M138.161 181.577H146L135.059 200.08V210.423H126.975V199.956L116.074 181.577H124.607L131.384 193.033L138.161 181.577Z" fill="white"/>
</svg>
