<svg width="122" height="30" viewBox="0 0 122 30" fill="none" xmlns="http://www.w3.org/2000/svg">
<path d="M23.0682 0.39773V29.4886H19.6591L3.80684 6.64773H3.52275V29.4886H2.24113e-05V0.39773H3.40911L19.3182 23.2955H19.6023V0.39773H23.0682ZM54.6627 14.9432C54.6627 18.0114 54.1087 20.6629 53.0007 22.8977C51.8928 25.1326 50.3729 26.8561 48.4411 28.0682C46.5093 29.2803 44.3028 29.8864 41.8218 29.8864C39.3407 29.8864 37.1343 29.2803 35.2024 28.0682C33.2706 26.8561 31.7507 25.1326 30.6428 22.8977C29.5348 20.6629 28.9808 18.0114 28.9808 14.9432C28.9808 11.875 29.5348 9.22349 30.6428 6.98864C31.7507 4.75379 33.2706 3.03031 35.2024 1.81818C37.1343 0.606063 39.3407 2.38419e-06 41.8218 2.38419e-06C44.3028 2.38419e-06 46.5093 0.606063 48.4411 1.81818C50.3729 3.03031 51.8928 4.75379 53.0007 6.98864C54.1087 9.22349 54.6627 11.875 54.6627 14.9432ZM51.2536 14.9432C51.2536 12.4242 50.8322 10.2983 49.9894 8.56534C49.156 6.83239 48.0244 5.52084 46.5945 4.63068C45.174 3.74053 43.5831 3.29546 41.8218 3.29546C40.0604 3.29546 38.4647 3.74053 37.0348 4.63068C35.6144 5.52084 34.4827 6.83239 33.6399 8.56534C32.8066 10.2983 32.3899 12.4242 32.3899 14.9432C32.3899 17.4621 32.8066 19.5881 33.6399 21.321C34.4827 23.054 35.6144 24.3655 37.0348 25.2557C38.4647 26.1458 40.0604 26.5909 41.8218 26.5909C43.5831 26.5909 45.174 26.1458 46.5945 25.2557C48.0244 24.3655 49.156 23.054 49.9894 21.321C50.8322 19.5881 51.2536 17.4621 51.2536 14.9432ZM71.836 29.4886V0.39773H82.0064C84.0329 0.39773 85.7043 0.748109 87.0206 1.44887C88.3369 2.14015 89.317 3.07292 89.961 4.24716C90.6049 5.41193 90.9269 6.70455 90.9269 8.125C90.9269 9.375 90.7043 10.4072 90.2593 11.2216C89.8236 12.036 89.246 12.6799 88.5263 13.1534C87.8161 13.6269 87.0443 13.9773 86.211 14.2045V14.4886C87.1011 14.5455 87.996 14.858 88.8956 15.4261C89.7952 15.9943 90.5481 16.8087 91.1541 17.8693C91.7602 18.9299 92.0632 20.2273 92.0632 21.7614C92.0632 23.2197 91.7318 24.5313 91.0689 25.696C90.406 26.8608 89.3596 27.7841 87.9297 28.4659C86.4998 29.1477 84.639 29.4886 82.3473 29.4886H71.836ZM75.3587 26.3636H82.3473C84.6485 26.3636 86.282 25.9186 87.2479 25.0284C88.2233 24.1288 88.711 23.0398 88.711 21.7614C88.711 20.7765 88.46 19.8674 87.9581 19.0341C87.4562 18.1913 86.7413 17.5189 85.8132 17.017C84.8852 16.5057 83.7867 16.25 82.5178 16.25H75.3587V26.3636ZM75.3587 13.1818H81.8928C82.9534 13.1818 83.9098 12.9735 84.7621 12.5568C85.6238 12.1402 86.3057 11.553 86.8076 10.7955C87.3189 10.0379 87.5746 9.14773 87.5746 8.125C87.5746 6.84659 87.1295 5.76231 86.2394 4.87216C85.3492 3.97254 83.9382 3.52273 82.0064 3.52273H75.3587V13.1818ZM117.738 9.48864C117.425 8.5322 117.014 7.67519 116.502 6.91762C116 6.15057 115.399 5.49716 114.698 4.95739C114.007 4.41762 113.221 4.00568 112.34 3.72159C111.46 3.4375 110.494 3.29546 109.442 3.29546C107.719 3.29546 106.152 3.74053 104.741 4.63068C103.33 5.52084 102.208 6.83239 101.374 8.56534C100.541 10.2983 100.124 12.4242 100.124 14.9432C100.124 17.4621 100.546 19.5881 101.389 21.321C102.231 23.054 103.372 24.3655 104.812 25.2557C106.251 26.1458 107.871 26.5909 109.67 26.5909C111.336 26.5909 112.804 26.2358 114.073 25.5256C115.352 24.8059 116.346 23.7926 117.056 22.4858C117.776 21.1695 118.136 19.6212 118.136 17.8409L119.215 18.0682H110.465V14.9432H121.545V18.0682C121.545 20.464 121.033 22.5474 120.011 24.3182C118.997 26.089 117.596 27.4621 115.806 28.4375C114.026 29.4034 111.98 29.8864 109.67 29.8864C107.094 29.8864 104.831 29.2803 102.88 28.0682C100.939 26.8561 99.4236 25.1326 98.3345 22.8977C97.255 20.6629 96.7152 18.0114 96.7152 14.9432C96.7152 12.642 97.023 10.5729 97.6385 8.7358C98.2635 6.88921 99.1442 5.31724 100.281 4.01989C101.417 2.72254 102.762 1.72822 104.315 1.03693C105.868 0.345647 107.577 2.38419e-06 109.442 2.38419e-06C110.977 2.38419e-06 112.407 0.23201 113.732 0.696025C115.067 1.15057 116.256 1.79924 117.298 2.64205C118.349 3.47538 119.225 4.47443 119.925 5.63921C120.626 6.79451 121.109 8.07765 121.374 9.48864H117.738Z" fill="#FF0000"/>
</svg>
